<svg xmlns="http://www.w3.org/2000/svg" xmlns:xlink="http://www.w3.org/1999/xlink" width="500" zoomAndPan="magnify" viewBox="0 0 375 374.999991" height="500" preserveAspectRatio="xMidYMid meet" version="1.0"><defs><clipPath id="e9aa205dc4"><path d="M 68.691406 32.03125 L 365.863281 32.03125 L 365.863281 329.203125 L 68.691406 329.203125 Z M 68.691406 32.03125 " clip-rule="nonzero"/></clipPath><clipPath id="7c49f9d1ef"><path d="M 46.933594 47.914062 L 342.304688 47.914062 L 342.304688 343 L 46.933594 343 Z M 46.933594 47.914062 " clip-rule="nonzero"/></clipPath><clipPath id="f7368ae147"><path d="M 9.289062 118.21875 L 128.160156 118.21875 L 128.160156 281.214844 L 9.289062 281.214844 Z M 9.289062 118.21875 " clip-rule="nonzero"/></clipPath><clipPath id="3622f1cbbe"><path d="M 139.191406 113.429688 L 213.757812 113.429688 L 213.757812 277.324219 L 139.191406 277.324219 Z M 139.191406 113.429688 " clip-rule="nonzero"/></clipPath></defs><g clip-path="url(#e9aa205dc4)"><path fill="#959595" d="M 113.582031 32.03125 L 321.007812 32.03125 C 333.359375 32.03125 344.582031 37.078125 352.714844 45.210938 C 360.847656 53.34375 365.898438 64.570312 365.898438 76.921875 L 365.898438 284.347656 C 365.898438 296.699219 360.847656 307.921875 352.714844 316.054688 C 344.582031 324.1875 333.359375 329.238281 321.007812 329.238281 L 113.582031 329.238281 C 101.230469 329.238281 90.003906 324.1875 81.875 316.054688 C 73.738281 307.921875 68.691406 296.699219 68.691406 284.347656 L 68.691406 76.921875 C 68.691406 64.570312 73.738281 53.34375 81.875 45.210938 C 90.003906 37.078125 101.230469 32.03125 113.582031 32.03125 " fill-opacity="1" fill-rule="nonzero"/></g><g clip-path="url(#7c49f9d1ef)"><path fill="#ffffff" d="M 91.503906 47.914062 L 297.445312 47.914062 C 309.707031 47.914062 320.851562 52.929688 328.925781 61 C 337.003906 69.078125 342.015625 80.222656 342.015625 92.484375 L 342.015625 298.429688 C 342.015625 310.691406 337.003906 321.835938 328.925781 329.910156 C 320.851562 337.984375 309.707031 343 297.445312 343 L 91.503906 343 C 79.238281 343 68.09375 337.984375 60.019531 329.910156 C 51.945312 321.835938 46.933594 310.691406 46.933594 298.429688 L 46.933594 92.484375 C 46.933594 80.222656 51.945312 69.078125 60.019531 61 C 68.09375 52.929688 79.238281 47.914062 91.503906 47.914062 " fill-opacity="1" fill-rule="nonzero"/></g><g clip-path="url(#f7368ae147)"><path fill="#a91111" d="M 9.363281 158.300781 L 74.777344 199.847656 L 9.363281 241.425781 L 9.363281 281.507812 L 128.015625 206.511719 L 128.015625 193.183594 L 9.363281 118.21875 Z M 9.363281 158.300781 " fill-opacity="1" fill-rule="nonzero"/></g><path fill="#000000" d="M 231.785156 113.667969 C 237.421875 112.691406 243.628906 115.328125 246.515625 120.34375 C 247.324219 121.644531 248.304688 123.5 250.164062 123.085938 C 255.117188 122.261719 260.359375 122.804688 264.710938 125.441406 C 272.40625 129.730469 276.546875 140.09375 272.570312 148.238281 C 271.398438 150.214844 273.03125 152.925781 275.28125 153.003906 C 281.984375 154.042969 287.898438 159.792969 288.285156 166.710938 C 288.589844 169.699219 287.632812 172.601562 286.191406 175.179688 C 284.898438 177.007812 285.855469 179.816406 288.039062 180.386719 C 294.933594 182.78125 300.976562 190.65625 298.191406 198.082031 C 297.285156 201.296875 294.699219 203.488281 292.515625 205.84375 C 291.082031 207.542969 292.574219 209.753906 292.867188 211.582031 C 289.484375 207.777344 284.804688 205.359375 279.796875 204.574219 C 276.1875 195.203125 265.226562 189.652344 255.546875 192.375 C 252.488281 193.492188 252.789062 198.582031 256.054688 199.222656 C 259.066406 199.230469 262.164062 198.339844 265.082031 199.515625 C 269.757812 200.910156 272.820312 205.207031 274.09375 209.726562 C 274.828125 211.964844 277.554688 211.589844 279.386719 211.9375 C 285.140625 212.582031 289.707031 217.636719 290.484375 223.277344 C 287.96875 225.289062 288.859375 228.792969 287.425781 231.398438 C 284.828125 237.371094 278.101562 240.726562 271.757812 240.167969 C 269.78125 239.882812 267.921875 241.496094 267.996094 243.519531 C 268.652344 246.808594 270.371094 250.035156 269.6875 253.488281 C 268.679688 260.480469 262.175781 266.015625 255.15625 266.128906 C 252.707031 265.90625 250.105469 266.707031 249.113281 269.167969 C 245.070312 276.976562 234.042969 279.144531 226.957031 274.265625 C 222.566406 271.492188 220.074219 266.238281 220.371094 261.089844 C 220.496094 249.195312 220.1875 237.277344 220.519531 225.398438 C 222.230469 222.238281 221.589844 218.398438 223.4375 215.285156 C 226.378906 209.578125 233.148438 206.441406 239.425781 207.199219 C 245.535156 207.808594 251.371094 211.78125 253.546875 217.644531 C 246.851562 219.789062 241.09375 226.164062 241.792969 233.523438 C 242.144531 236.804688 247.460938 237.320312 248.511719 234.265625 C 248.996094 231.953125 249.011719 229.335938 250.761719 227.535156 C 254.082031 223.453125 261.058594 223.59375 264.210938 227.800781 C 265.976562 229.71875 265.609375 232.5 266.460938 234.785156 C 267.992188 237.285156 272.621094 236.570312 272.960938 233.507812 C 273.644531 226.066406 267.769531 219.222656 260.640625 217.722656 C 258.597656 209.527344 251.730469 203.003906 243.542969 201.125 C 235.339844 198.804688 226.179688 201.566406 220.34375 207.726562 C 220.410156 191.273438 220.394531 174.808594 220.359375 158.355469 C 227.078125 163.9375 236.425781 166.667969 244.953125 164.128906 C 248.828125 162.828125 252.953125 161.269531 255.695312 158.097656 C 257.472656 155.425781 254.171875 151.796875 251.378906 153.042969 C 248.96875 154.5 246.6875 156.246094 243.945312 157.054688 C 238.367188 159.042969 231.941406 158.148438 227.082031 154.785156 C 223.53125 152.410156 220.152344 148.796875 220.054688 144.28125 C 220.003906 138.433594 220.019531 132.585938 220.054688 126.734375 C 220.058594 120.261719 225.550781 114.660156 231.785156 113.667969 Z M 231.785156 113.667969 " fill-opacity="1" fill-rule="nonzero"/><g clip-path="url(#3622f1cbbe)"><path fill="#000000" d="M 139.875 209.980469 C 139.53125 198.808594 139.53125 198.785156 139.191406 187.617188 L 156.492188 180.867188 C 158.988281 174.28125 160.238281 170.972656 162.734375 164.382812 L 154.25 147.855469 C 161.914062 139.738281 161.933594 139.71875 169.597656 131.574219 L 186.589844 139.03125 L 202.636719 131.785156 L 208.335938 114.113281 L 230.679688 113.429688 L 237.449219 130.730469 C 244.019531 133.226562 247.347656 134.476562 253.910156 136.972656 L 270.4375 128.496094 C 278.582031 136.136719 278.601562 136.160156 286.742188 143.820312 L 279.289062 160.824219 C 282.160156 167.230469 283.617188 170.472656 286.515625 176.875 L 304.207031 182.578125 C 304.546875 193.75 304.546875 193.769531 304.890625 204.917969 L 287.585938 211.691406 C 285.089844 218.257812 283.84375 221.585938 281.347656 228.171875 L 289.820312 244.679688 C 282.160156 252.816406 282.136719 252.84375 274.5 260.980469 L 257.492188 253.527344 C 251.0625 256.398438 247.824219 257.855469 241.417969 260.75 L 235.738281 278.445312 L 213.367188 279.125 L 206.617188 261.824219 C 200.03125 259.328125 196.726562 258.082031 190.136719 255.585938 L 173.609375 264.066406 L 157.328125 248.746094 L 164.785156 231.738281 C 161.871094 225.332031 160.429688 222.070312 157.535156 215.664062 Z M 222.039062 244.890625 C 223.632812 244.890625 225.21875 244.8125 226.804688 244.65625 C 228.390625 244.5 229.960938 244.265625 231.523438 243.953125 C 233.085938 243.644531 234.625 243.257812 236.148438 242.796875 C 237.671875 242.332031 239.171875 241.796875 240.640625 241.1875 C 242.109375 240.578125 243.546875 239.898438 244.953125 239.148438 C 246.355469 238.398438 247.71875 237.582031 249.042969 236.695312 C 250.367188 235.8125 251.644531 234.863281 252.875 233.855469 C 254.105469 232.84375 255.28125 231.777344 256.410156 230.652344 C 257.535156 229.523438 258.601562 228.347656 259.613281 227.117188 C 260.621094 225.886719 261.570312 224.609375 262.453125 223.285156 C 263.335938 221.960938 264.15625 220.597656 264.90625 219.195312 C 265.65625 217.789062 266.335938 216.351562 266.945312 214.882812 C 267.554688 213.410156 268.089844 211.914062 268.550781 210.390625 C 269.011719 208.867188 269.398438 207.324219 269.710938 205.761719 C 270.019531 204.203125 270.253906 202.628906 270.410156 201.046875 C 270.566406 199.460938 270.644531 197.871094 270.644531 196.28125 C 270.644531 194.6875 270.566406 193.101562 270.410156 191.515625 C 270.253906 189.933594 270.019531 188.359375 269.710938 186.796875 C 269.398438 185.238281 269.011719 183.695312 268.550781 182.171875 C 268.085938 180.648438 267.550781 179.152344 266.941406 177.679688 C 266.332031 176.210938 265.652344 174.773438 264.902344 173.367188 C 264.152344 171.964844 263.335938 170.601562 262.453125 169.277344 C 261.566406 167.953125 260.621094 166.675781 259.609375 165.445312 C 258.601562 164.214844 257.53125 163.039062 256.40625 161.910156 C 255.28125 160.785156 254.101562 159.71875 252.871094 158.707031 C 251.640625 157.699219 250.363281 156.75 249.042969 155.867188 C 247.71875 154.984375 246.355469 154.164062 244.949219 153.414062 C 243.546875 152.664062 242.109375 151.984375 240.636719 151.375 C 239.167969 150.765625 237.671875 150.230469 236.148438 149.769531 C 234.625 149.304688 233.082031 148.921875 231.519531 148.609375 C 229.957031 148.300781 228.386719 148.066406 226.800781 147.910156 C 225.21875 147.753906 223.628906 147.675781 222.039062 147.675781 C 220.445312 147.675781 218.859375 147.753906 217.273438 147.910156 C 215.6875 148.066406 214.117188 148.296875 212.554688 148.609375 C 210.992188 148.917969 209.453125 149.304688 207.929688 149.769531 C 206.40625 150.230469 204.90625 150.765625 203.4375 151.375 C 201.964844 151.984375 200.527344 152.664062 199.125 153.414062 C 197.722656 154.164062 196.359375 154.980469 195.035156 155.867188 C 193.710938 156.75 192.433594 157.695312 191.203125 158.707031 C 189.972656 159.71875 188.792969 160.785156 187.667969 161.910156 C 186.542969 163.035156 185.476562 164.214844 184.464844 165.445312 C 183.453125 166.675781 182.507812 167.953125 181.625 169.273438 C 180.738281 170.597656 179.921875 171.960938 179.171875 173.367188 C 178.421875 174.769531 177.738281 176.207031 177.132812 177.679688 C 176.523438 179.148438 175.984375 180.644531 175.523438 182.167969 C 175.0625 183.691406 174.675781 185.234375 174.363281 186.796875 C 174.054688 188.355469 173.820312 189.929688 173.664062 191.515625 C 173.507812 193.097656 173.429688 194.6875 173.429688 196.277344 C 173.429688 197.871094 173.507812 199.457031 173.664062 201.042969 C 173.820312 202.625 174.054688 204.199219 174.367188 205.761719 C 174.675781 207.320312 175.0625 208.863281 175.527344 210.386719 C 175.988281 211.910156 176.523438 213.40625 177.132812 214.878906 C 177.742188 216.347656 178.421875 217.785156 179.171875 219.191406 C 179.921875 220.59375 180.742188 221.957031 181.625 223.28125 C 182.511719 224.605469 183.457031 225.882812 184.46875 227.113281 C 185.476562 228.34375 186.546875 229.523438 187.671875 230.648438 C 188.796875 231.773438 189.976562 232.839844 191.207031 233.851562 C 192.4375 234.859375 193.714844 235.808594 195.035156 236.691406 C 196.359375 237.578125 197.722656 238.394531 199.128906 239.144531 C 200.53125 239.894531 201.96875 240.574219 203.441406 241.183594 C 204.910156 241.792969 206.40625 242.332031 207.929688 242.792969 C 209.453125 243.253906 210.996094 243.640625 212.558594 243.953125 C 214.121094 244.265625 215.691406 244.496094 217.277344 244.652344 C 218.859375 244.808594 220.449219 244.886719 222.039062 244.890625 Z M 222.039062 244.890625 " fill-opacity="1" fill-rule="nonzero"/></g></svg>